<svg width="70" height="70" viewBox="0 0 70 70" fill="none" xmlns="http://www.w3.org/2000/svg">
<path d="M12.3958 5.64211e-06H57.6042C59.2324 -0.00156837 60.845 0.326206 62.3497 0.964571C63.8543 1.60294 65.2214 2.53936 66.3728 3.72024C67.5241 4.90113 68.4371 6.3033 69.0596 7.84651C69.682 9.38971 70.0015 11.0437 70 12.7137V57.2863C70.0015 58.9564 69.682 60.6103 69.0596 62.1535C68.4371 63.6967 67.5241 65.0989 66.3728 66.2798C65.2214 67.4606 63.8543 68.3971 62.3497 69.0354C60.845 69.6738 59.2324 70.0016 57.6042 70H12.3958C10.7676 70.0016 9.15497 69.6738 7.65034 69.0354C6.14572 68.3971 4.7786 67.4606 3.62724 66.2798C2.47587 65.0989 1.56286 63.6967 0.940456 62.1535C0.318051 60.6103 -0.00152916 58.9564 5.50105e-06 57.2863V12.7137C-0.00152916 11.0437 0.318051 9.38971 0.940456 7.84651C1.56286 6.3033 2.47587 4.90113 3.62724 3.72024C4.7786 2.53936 6.14572 1.60294 7.65034 0.964571C9.15497 0.326206 10.7676 -0.00156837 12.3958 5.64211e-06Z" fill="#49021F"/>
<path d="M25.4334 18.3077V49C25.4334 49.3291 25.2875 49.4786 25.025 49.4786H19.3084C19.0459 49.4786 18.9292 49.3291 18.9292 49V18.3077C18.9292 18.0385 19.075 17.9188 19.3375 17.9188H25.025C25.0692 17.9116 25.1144 17.9138 25.1578 17.9252C25.2012 17.9365 25.2418 17.9568 25.2773 17.9848C25.3128 18.0128 25.3423 18.0479 25.3642 18.088C25.386 18.1281 25.3996 18.1723 25.4042 18.2179C25.4152 18.2298 25.4236 18.2439 25.4286 18.2595C25.4336 18.275 25.4353 18.2914 25.4334 18.3077Z" fill="#FF3366"/>
<path d="M42.2334 49.9573C40.0714 49.9937 37.9289 49.5337 35.9626 48.6111C34.1332 47.7337 32.5999 46.3174 31.5584 44.5428C30.4792 42.718 29.9542 40.4445 29.9542 37.7222C29.9247 35.5084 30.4789 33.3276 31.5584 31.4103C32.6653 29.4616 34.2684 27.8588 36.1959 26.7735C38.2376 25.6069 40.6876 25.0385 43.5751 25.0385C43.7796 25.0361 43.9842 25.0461 44.1876 25.0684C44.4501 25.0983 44.7418 25.0983 45.0918 25.1282V15.6752C45.0918 15.4658 45.1793 15.3462 45.3834 15.3462H51.3042C51.3696 15.3371 51.4359 15.3536 51.49 15.3924C51.544 15.4312 51.5818 15.4895 51.5959 15.5556V44.094C51.5959 44.6325 51.6251 45.2308 51.6543 45.8889C51.6834 46.547 51.7417 47.1154 51.7709 47.624C51.7771 47.725 51.7523 47.8255 51.7 47.9113C51.6477 47.9972 51.5705 48.0641 51.4792 48.1026C49.9515 48.7611 48.3569 49.2427 46.7251 49.5385C45.2429 49.814 43.7398 49.9542 42.2334 49.9573ZM45.0918 43.9744V30.812C44.8321 30.7477 44.5692 30.6978 44.3042 30.6624C43.9834 30.6325 43.6626 30.6026 43.3418 30.6026C42.1985 30.5894 41.0686 30.856 40.0459 31.3804C39.0492 31.8897 38.1959 32.6517 37.5667 33.594C36.9251 34.5513 36.6042 35.8376 36.6042 37.3932C36.5788 38.4431 36.7471 39.4885 37.1001 40.4744C37.3822 41.2716 37.83 41.9964 38.4126 42.5983C38.9749 43.1487 39.6537 43.5582 40.3959 43.7949C41.1772 44.0573 41.9947 44.1887 42.8168 44.1838C43.2543 44.1838 43.6626 44.1539 44.0417 44.124C44.3982 44.1521 44.7563 44.1011 45.0918 43.9744Z" fill="#FF3366"/>
</svg>
