<svg width="39" height="39" viewBox="0 0 39 39" fill="none" xmlns="http://www.w3.org/2000/svg">
<path d="M27.6247 3.24971C29.7778 3.25614 31.8408 4.11429 33.3633 5.63674C34.8857 7.15919 35.7439 9.22223 35.7503 11.3753V27.6247C35.7439 29.7778 34.8857 31.8408 33.3633 33.3633C31.8408 34.8857 29.7778 35.7439 27.6247 35.7503H11.3753C9.22223 35.7439 7.15919 34.8857 5.63674 33.3633C4.11429 31.8408 3.25614 29.7778 3.24971 27.6247V11.3753C3.25614 9.22223 4.11429 7.15919 5.63674 5.63674C7.15919 4.11429 9.22223 3.25614 11.3753 3.24971H27.6247ZM27.6247 0H11.3753C5.11875 0 0 5.11875 0 11.3753V27.6247C0 33.8812 5.11875 39 11.3753 39H27.6247C33.8812 39 39 33.8812 39 27.6247V11.3753C39 5.11875 33.8812 0 27.6247 0Z" fill="#F9F8F1"/>
<path d="M30.0622 11.3753C29.5801 11.3753 29.1089 11.2323 28.708 10.9645C28.3072 10.6967 27.9947 10.316 27.8103 9.87058C27.6258 9.42519 27.5775 8.93509 27.6715 8.46226C27.7656 7.98943 27.9977 7.55511 28.3386 7.21422C28.6795 6.87333 29.1138 6.64118 29.5867 6.54713C30.0595 6.45307 30.5496 6.50135 30.995 6.68583C31.4404 6.87032 31.8211 7.18274 32.0889 7.58359C32.3568 7.98443 32.4997 8.4557 32.4997 8.93779C32.5004 9.25808 32.4378 9.57535 32.3156 9.8714C32.1933 10.1674 32.0138 10.4364 31.7873 10.6629C31.5608 10.8894 31.2919 11.0689 30.9958 11.1911C30.6998 11.3134 30.3825 11.376 30.0622 11.3753Z" fill="#F9F8F1"/>
<path d="M19.5 12.9997C20.7856 12.9997 22.0424 13.3809 23.1114 14.0952C24.1803 14.8095 25.0135 15.8247 25.5055 17.0124C25.9975 18.2002 26.1262 19.5072 25.8754 20.7681C25.6246 22.0291 25.0055 23.1873 24.0964 24.0964C23.1873 25.0055 22.0291 25.6246 20.7681 25.8754C19.5072 26.1262 18.2002 25.9975 17.0124 25.5055C15.8247 25.0135 14.8095 24.1803 14.0952 23.1114C13.3809 22.0424 12.9997 20.7856 12.9997 19.5C13.0016 17.7766 13.687 16.1243 14.9056 14.9056C16.1243 13.687 17.7766 13.0016 19.5 12.9997ZM19.5 9.75C17.5716 9.75 15.6866 10.3218 14.0832 11.3932C12.4798 12.4645 11.2301 13.9873 10.4922 15.7688C9.75422 17.5504 9.56114 19.5108 9.93734 21.4021C10.3135 23.2934 11.2421 25.0307 12.6057 26.3943C13.9693 27.7579 15.7066 28.6865 17.5979 29.0627C19.4892 29.4389 21.4496 29.2458 23.2312 28.5078C25.0127 27.7699 26.5355 26.5202 27.6068 24.9168C28.6782 23.3134 29.25 21.4284 29.25 19.5C29.25 16.9141 28.2228 14.4342 26.3943 12.6057C24.5658 10.7772 22.0859 9.75 19.5 9.75Z" fill="#F9F8F1"/>
</svg>
