<svg width="50" height="50" viewBox="0 0 50 50" fill="none" xmlns="http://www.w3.org/2000/svg">
<path d="M9.01669 18.4752L23.6354 31.5023C24.017 31.842 24.51 32.0297 25.0209 32.0297C25.5317 32.0297 26.0247 31.842 26.4063 31.5023L41.0084 18.4898L26.1396 8.77105C25.8008 8.54964 25.4048 8.43174 25 8.43174C24.5953 8.43174 24.1993 8.54964 23.8604 8.77105L9.01669 18.4752ZM41.6667 18.921V23.4835L29.1792 34.6127C28.0344 35.633 26.5544 36.1968 25.0209 36.1968C23.4873 36.1968 22.0074 35.633 20.8625 34.6127L8.33335 23.446V18.9231V41.6669H41.6667V18.921ZM6.05419 15.4335L21.5813 5.28355C22.5978 4.61934 23.7858 4.26562 25 4.26562C26.2143 4.26563 27.4023 4.61934 28.4188 5.28355L43.9459 15.4335C44.5255 15.8123 45.0015 16.3295 45.3311 16.9384C45.6606 17.5473 45.8333 18.2287 45.8334 18.921V41.6669C45.8334 42.7719 45.3944 43.8318 44.613 44.6132C43.8316 45.3946 42.7718 45.8335 41.6667 45.8335H8.33335C7.22829 45.8335 6.16848 45.3946 5.38708 44.6132C4.60567 43.8318 4.16669 42.7719 4.16669 41.6669V18.921C4.16678 18.2287 4.3394 17.5473 4.66895 16.9384C4.9985 16.3295 5.47459 15.8123 6.05419 15.4335V15.4335Z" fill="white"/>
</svg>
